{"accessors" : [{"bufferView" : 0, "byteOffset" : 0, "componentType" : 5123, "count" : 179934, "type" : "SCALAR", "max" : [31009], "min" : [0]}, {"bufferView" : 1, "byteOffset" : 0, "componentType" : 5126, "count" : 31010, "type" : "VEC3", "max" : [0.9993280172348022, 0.9964969754219055, 0.9978449940681458], "min" : [-1.0027199983596802, -1.0008100271224976, -1.0023399591445923], "name" : "POSITION"}, {"bufferView" : 1, "byteOffset" : 12, "componentType" : 5126, "count" : 31010, "type" : "VEC3", "max" : [0.9998419880867004, 0.9999834299087524, 0.9999490976333618], "min" : [-0.9999827146530151, -1.0000029802322388, -0.9999356269836426], "name" : "NORMAL"}, {"bufferView" : 1, "byteOffset" : 24, "componentType" : 5126, "count" : 31010, "type" : "VEC2", "max" : [1, 2], "min" : [0.00020194053649902344, 1.322021484375], "name" : "TEXCOORD_0"}], "asset" : {"generator" : "Aspose.3D 24.6.0", "version" : "2.0"}, "buffers" : [{"uri" : "data:application/octet-stream;base64,", "byteLength" : 1352196}], "bufferViews" : [{"buffer" : 0, "byteOffset" : 0, "byteLength" : 359868, "target" : 34963}, {"buffer" : 0, "byteOffset" : 359872, "byteLength" : 992320, "byteStride" : 32, "target" : 34962}], "images" : [{"uri" : "data:image/jpeg;base64,"}], "materials" : [{"pbrMetallicRoughness" : {"baseColorFactor" : [1, 1, 1, 1], "baseColorTexture" : {"index" : 0, "texCoord" : 0}, "metallicFactor" : 0, "roughnessFactor" : 0.8}, "emissiveFactor" : [0, 0, 0], "alphaMode" : "OPAQUE", "doubleSided" : true}], "meshes" : [{"primitives" : [{"attributes" : {"POSITION" : 1, "NORMAL" : 2, "TEXCOORD_0" : 3}, "indices" : 0, "material" : 0, "mode" : 4}]}], "nodes" : [{"mesh" : 0, "name" : "Node #0"}], "samplers" : [{"magFilter" : 9729, "minFilter" : 9987, "wrapS" : 10497, "wrapT" : 10497}], "scene" : 0, "scenes" : [{"nodes" : [0]}], "textures" : [{"sampler" : 0, "source" : 0, "name" : ""}]}